<svg preserveAspectRatio="none" width="100%" height="100%" overflow="visible" style="display: block;" viewBox="0 0 17.9996 17.9996" fill="none" xmlns="http://www.w3.org/2000/svg">
<path id="&#232;&#183;&#175;&#229;&#190;&#132; 28&#239;&#188;&#136;&#232;&#190;&#185;&#230;&#161;&#134;&#239;&#188;&#137;" d="M0 0.9998C0 1.26496 0.105336 1.51927 0.292835 1.70677L7.58559 8.9998L0.292693 16.2927C0.105336 16.4803 0 16.7346 0 16.9998C0 17.552 0.447626 17.9996 0.9998 17.9996C1.26496 17.9996 1.51927 17.8943 1.70676 17.7068L8.9998 10.414L16.2927 17.7069C16.4803 17.8943 16.7346 17.9996 16.9998 17.9996C17.552 17.9996 17.9996 17.552 17.9996 16.9998C17.9996 16.7346 17.8943 16.4803 17.7068 16.2928L10.414 8.9998L17.7069 1.70691C17.8943 1.51927 17.9996 1.26496 17.9996 0.9998C17.9996 0.447626 17.552 0 16.9998 0C16.7346 0 16.4803 0.105336 16.2928 0.292835L8.9998 7.58559L1.70691 0.292693C1.51927 0.105336 1.26496 0 0.9998 0C0.447626 0 0 0.447626 0 0.9998Z" fill="var(--fill-0, white)"/>
</svg>
